<?xml version="1.0" encoding="UTF-8" standalone="no"?>
<svg
   xmlns:dc="http://purl.org/dc/elements/1.1/"
   xmlns:cc="http://creativecommons.org/ns#"
   xmlns:rdf="http://www.w3.org/1999/02/22-rdf-syntax-ns#"
   xmlns:svg="http://www.w3.org/2000/svg"
   xmlns="http://www.w3.org/2000/svg"
   version="1.1"
   id="svg8841"
   xml:space="preserve"
   width="600"
   height="262.43512"
   viewBox="0 0 600 262.43512"><metadata
     id="metadata8847"><rdf:RDF><cc:Work
         rdf:about=""><dc:format>image/svg+xml</dc:format><dc:type
           rdf:resource="http://purl.org/dc/dcmitype/StillImage" /><dc:title></dc:title></cc:Work></rdf:RDF></metadata><defs
     id="defs8845"><linearGradient
       x1="0"
       y1="0"
       x2="1"
       y2="0"
       gradientUnits="userSpaceOnUse"
       gradientTransform="matrix(220.765,0,0,-220.765,-111.5439,51.0098)"
       spreadMethod="pad"
       id="linearGradient9063"><stop
         style="stop-opacity:1;stop-color:#d0004c"
         offset="0"
         id="stop9059" /><stop
         style="stop-opacity:1;stop-color:#ea5602"
         offset="1"
         id="stop9061" /></linearGradient><linearGradient
       x1="0"
       y1="0"
       x2="1"
       y2="0"
       gradientUnits="userSpaceOnUse"
       gradientTransform="matrix(220.765,0,0,-220.765,-111.5439,51.0098)"
       spreadMethod="pad"
       id="linearGradient9073"><stop
         style="stop-opacity:1;stop-color:#d0004c"
         offset="0"
         id="stop9069" /><stop
         style="stop-opacity:1;stop-color:#ea5602"
         offset="1"
         id="stop9071" /></linearGradient></defs><g
     id="g8849"
     transform="matrix(1.3333333,0,0,-1.3333333,-528.71485,118.57453)"><path
       d="m 467.46889,-50.994317 c 1.62929,11.127397 11.17165,19.374384 22.41572,19.374384 h 315.23202 c 13.50494,0 26.1007,10.938321 27.99148,24.3105083 l 13.41241,94.7277067 c 0.12069,0.832744 -0.47068,1.512618 -1.31147,1.512618 H 503.91253 c -14.15263,0 -26.18519,-10.334883 -28.32136,-24.3266 L 455.35588,-62.194128 c -10.51994,5.020605 -28.95296,1.524687 -43.25444,-8.681462 -15.52445,-11.127398 -20.25138,-25.947837 -10.45959,-33.15691 9.79983,-7.2131 30.37707,-4.03097 45.96589,7.096432 8.83433,6.328053 14.15263,13.879075 15.29112,20.532985 z"
       style="fill:#d0004c;fill-opacity:1;fill-rule:nonzero;stroke:none;stroke-width:4.02292"
       id="path9271" /><g
       id="g9964"><path
         d="m 680.95522,33.89051 0.56723,1.130441 c 2.77984,5.563699 7.55505,8.753874 13.09863,8.753874 5.76485,0 9.55444,-3.302817 10.39121,-9.059616 l 0.12068,-0.824699 z m 31.46729,13.854938 c -3.90224,4.606244 -9.64697,7.044133 -16.6026,7.044133 -16.33305,0 -29.62076,-13.199201 -29.62076,-29.419616 0,-13.617586 9.11192,-22.4197358 23.21627,-22.4197358 10.91016,0 19.98587,5.1694527 24.90188,14.1807948 l -12.60381,3.089602 c -2.72754,-3.878095 -6.5292,-5.845303 -11.29636,-5.845303 -6.45276,0 -10.34695,3.777522 -10.6889,10.35902 l -0.0402,0.724126 h 37.45339 l 0.0362,0.265513 c 1.35572,9.128006 -0.28965,16.743394 -4.75509,22.021466"
         style="fill:#ffffff;fill-opacity:1;fill-rule:nonzero;stroke:none;stroke-width:4.02292"
         id="path9273" /><path
         d="m 516.8426,2.9518383 c -11.89175,0 -20.44046,4.9160088 -22.87433,13.1549497 l -0.0925,0.32988 14.34171,2.92064 0.0845,-0.265513 c 1.36377,-4.216021 5.93783,-5.71657 9.44179,-5.71657 4.71889,0 7.19298,2.409729 7.19298,4.791298 0,2.502257 -2.66719,3.503964 -5.27404,4.155677 l -7.54298,2.309156 c -7.62343,2.136171 -11.49348,6.661957 -11.49348,13.440577 0,10.157874 8.36767,16.715235 21.31745,16.715235 11.07912,0 19.39048,-4.932101 21.68757,-12.881391 l 0.0925,-0.317811 -12.55151,-2.888457 -0.0885,0.273559 c -1.13044,3.572353 -4.78326,5.788982 -9.53835,5.788982 -6.02633,0 -6.49299,-3.588445 -6.49299,-4.686702 0,-2.132148 1.58503,-3.612583 4.98037,-4.658542 l 6.01829,-1.902841 c 9.11594,-2.779838 13.01013,-7.007928 13.01013,-14.144589 0,-9.9768421 -8.72169,-16.4175377 -22.21859,-16.4175377"
         style="fill:#ffffff;fill-opacity:1;fill-rule:nonzero;stroke:none;stroke-width:4.02292"
         id="path9275" /><path
         d="m 582.70304,22.350763 c -1.0701,-4.924055 -7.28954,-9.083754 -13.58138,-9.083754 -4.38096,0 -7.10046,2.067781 -7.10046,5.398759 0,3.242474 2.38962,6.702185 9.10387,6.702185 h 12.24979 z m 14.12045,26.26967 c -3.20627,4.034989 -8.87457,6.167137 -16.39743,6.167137 -11.0751,0 -20.71401,-5.322324 -25.14727,-13.895167 l 12.77679,-3.302818 c 2.08387,3.922348 5.8976,6.175183 10.47166,6.175183 2.73157,0 4.82349,-0.824699 6.05048,-2.381569 1.14251,-1.444228 1.46032,-3.40339 0.91722,-5.672318 l -0.41838,-1.830428 H 572.0262 c -15.20261,0 -25.02256,-7.14873 -25.02256,-18.215784 0,-7.9573365 5.61197,-12.7124284 15.01756,-12.7124284 5.84128,0 11.19579,1.7057183 15.90663,5.0688797 l 1.50457,1.0781427 -1.13044,-4.650496 h 13.97965 l 6.78264,29.475938 c 1.39193,6.018289 0.61953,11.099237 -2.24076,14.695728"
         style="fill:#ffffff;fill-opacity:1;fill-rule:nonzero;stroke:none;stroke-width:4.02292"
         id="path9277" /><path
         d="m 630.06608,2.9518383 c -7.81653,0 -14.45435,2.7275401 -18.69048,7.6797547 -4.02695,4.71084 -5.55968,10.97855 -4.43729,18.12728 2.34939,14.840553 15.64514,26.028295 30.93224,26.028295 11.75497,0 20.48873,-7.136661 21.73182,-17.761194 l 0.0322,-0.28965 -14.34171,-2.651105 -0.0442,0.321834 c -0.71608,4.855665 -4.29648,7.75619 -9.5826,7.75619 -7.36597,0 -13.40839,-5.426919 -14.68366,-13.195178 -0.59539,-3.99476 0.22528,-7.530907 2.31318,-9.948683 1.93905,-2.252835 4.83555,-3.443619 8.3717,-3.443619 5.25393,0 9.63489,2.848227 12.01646,7.812511 l 0.10057,0.213215 13.4446,-2.27295 -0.14482,-0.362063 C 652.53007,10.024132 641.92565,2.9518383 630.06608,2.9518383"
         style="fill:#ffffff;fill-opacity:1;fill-rule:nonzero;stroke:none;stroke-width:4.02292"
         id="path9279" /><path
         d="m 791.79191,4.4435372 6.30392,27.1627588 c 0.7201,3.105694 0.31378,5.833234 -1.15458,7.675732 -1.28331,1.617214 -3.25857,2.474096 -5.71657,2.474096 -6.23151,0 -11.0751,-4.433258 -13.27966,-12.157266 L 772.17213,4.4435372 h -14.59114 l 6.30392,27.1627588 c 0.7201,3.093626 0.30977,5.81312 -1.14653,7.651594 -1.29941,1.633306 -3.31489,2.498234 -5.82519,2.498234 -6.43265,0 -11.27222,-4.827505 -13.27161,-13.243454 L 738.06178,4.4435372 H 723.5672 l 11.18774,48.8382538 h 14.59516 l -1.3517,-5.945876 1.70572,1.753993 c 3.72924,3.82982 8.37974,5.692432 14.21297,5.692432 7.42631,0 12.95381,-3.089603 15.16641,-8.476293 l 0.44655,-1.086189 0.73217,0.917226 c 4.56601,5.736685 10.57626,8.645256 17.86579,8.645256 5.56772,0 10.17396,-1.935025 12.96989,-5.447034 2.83214,-3.556262 3.64879,-8.403881 2.36146,-14.015855 L 806.28649,4.4435372 Z"
         style="fill:#ffffff;fill-opacity:1;fill-rule:nonzero;stroke:none;stroke-width:4.02292"
         id="path9281" /></g></g></svg>
